<?xml version="1.0" encoding="utf-8"?>
<!-- Generator: Adobe Illustrator 19.1.0, SVG Export Plug-In . SVG Version: 6.00 Build 0)  -->
<svg version="1.1" id="Layer_1" xmlns="http://www.w3.org/2000/svg" xmlns:xlink="http://www.w3.org/1999/xlink" x="0px" y="0px"
	 viewBox="0 0 600 200" style="enable-background:new 0 0 600 200;" xml:space="preserve">
<style type="text/css">
	.st0{fill:#FFFFFF;}
</style>
<path class="st0" d="M467,18.4v156.7L590.7,199l4.5-198L467,18.4z M551,125h-1.5l-16.1,26.1l-21.4,2.2l16.2-28.3H513V95h38V125z
	 M551,88h-38V46.7l38,4.4V88z"/>
<g>
	<path class="st0" d="M108,46.7l-22.7,80.5H74.2L57.7,68.4c-0.7-2.5-1.1-5.2-1.3-8.2h-0.2c-0.2,2.8-0.7,5.5-1.5,8.1l-16.7,59H27
		L3.5,46.7h10.4L31,108.5c0.7,2.6,1.2,5.3,1.3,8.1h0.3c0.2-2,0.8-4.7,1.7-8.1l17.8-61.8h9l17.1,62.2c0.6,2.1,1,4.6,1.3,7.5h0.2
		c0.1-1.9,0.7-4.5,1.5-7.8l16.5-62H108z"/>
	<path class="st0" d="M120.6,55.1c-1.6,0-3.1-0.6-4.2-1.7c-1.2-1.1-1.7-2.5-1.7-4.3s0.6-3.2,1.7-4.3c1.2-1.1,2.6-1.7,4.2-1.7
		c1.7,0,3.1,0.6,4.3,1.7c1.2,1.1,1.8,2.6,1.8,4.3c0,1.6-0.6,3.1-1.8,4.2C123.7,54.5,122.3,55.1,120.6,55.1z M125.1,127.2h-9.2V69.7
		h9.2V127.2z"/>
	<path class="st0" d="M188.6,127.2h-9.2V94.4c0-12.2-4.5-18.3-13.4-18.3c-4.6,0-8.4,1.7-11.4,5.2c-3,3.5-4.5,7.8-4.5,13.1v32.8h-9.2
		V69.7h9.2v9.5h0.2c4.3-7.3,10.6-10.9,18.9-10.9c6.3,0,11.1,2,14.4,6.1c3.3,4.1,5,9.9,5,17.6V127.2z"/>
	<path class="st0" d="M199.6,125.1v-9.9c5,3.7,10.5,5.6,16.6,5.6c8.1,0,12.1-2.7,12.1-8.1c0-1.5-0.3-2.8-1-3.9
		c-0.7-1.1-1.6-2-2.8-2.8c-1.2-0.8-2.6-1.6-4.2-2.2c-1.6-0.7-3.3-1.3-5.1-2c-2.5-1-4.8-2-6.7-3.1c-1.9-1-3.5-2.2-4.8-3.5
		c-1.3-1.3-2.3-2.8-2.9-4.4c-0.7-1.6-1-3.6-1-5.8c0-2.7,0.6-5.1,1.9-7.2c1.2-2.1,2.9-3.8,4.9-5.2c2.1-1.4,4.4-2.5,7-3.2
		c2.6-0.7,5.4-1.1,8.2-1.1c5,0,9.4,0.9,13.4,2.6v9.3c-4.2-2.8-9.1-4.2-14.6-4.2c-1.7,0-3.3,0.2-4.7,0.6c-1.4,0.4-2.6,0.9-3.6,1.7
		c-1,0.7-1.8,1.6-2.3,2.6c-0.5,1-0.8,2.1-0.8,3.3c0,1.5,0.3,2.8,0.8,3.8c0.5,1,1.3,1.9,2.4,2.7c1,0.8,2.3,1.5,3.8,2.1
		c1.5,0.6,3.2,1.3,5.1,2.1c2.5,1,4.8,2,6.9,3c2,1,3.7,2.2,5.2,3.5c1.4,1.3,2.5,2.8,3.3,4.5c0.8,1.7,1.2,3.7,1.2,6
		c0,2.8-0.6,5.3-1.9,7.4c-1.3,2.1-2.9,3.8-5,5.2c-2.1,1.4-4.5,2.4-7.2,3.1c-2.7,0.7-5.6,1-8.6,1
		C209.1,128.6,203.9,127.4,199.6,125.1z"/>
	<path class="st0" d="M275.7,126.7c-2.2,1.2-5,1.8-8.6,1.8c-10.1,0-15.1-5.6-15.1-16.8v-34h-9.9v-7.9h9.9v-14l9.2-3v17h14.5v7.9
		h-14.5V110c0,3.9,0.7,6.6,2,8.3c1.3,1.6,3.5,2.5,6.5,2.5c2.3,0,4.3-0.6,6-1.9V126.7z"/>
	<path class="st0" d="M315.1,79c-1.6-1.2-3.9-1.9-7-1.9c-3.9,0-7.2,1.9-9.9,5.6c-2.6,3.7-4,8.8-4,15.2v29.3h-9.2V69.7h9.2v11.9h0.2
		c1.3-4,3.3-7.2,6-9.5c2.7-2.3,5.7-3.4,9-3.4c2.4,0,4.2,0.3,5.5,0.8V79z"/>
	<path class="st0" d="M363.4,127.2h-9.2v-9H354c-4,6.9-9.9,10.3-17.7,10.3c-5.7,0-10.2-1.5-13.5-4.5c-3.2-3-4.9-7.1-4.9-12.1
		c0-10.7,6.3-17,19-18.8l17.2-2.4c0-9.8-4-14.7-11.9-14.7c-6.9,0-13.2,2.4-18.8,7.1v-9.4c5.7-3.6,12.2-5.4,19.5-5.4
		c13.5,0,20.3,7.2,20.3,21.5V127.2z M354.2,98.1l-13.9,1.9c-4.3,0.6-7.5,1.7-9.7,3.2c-2.2,1.5-3.3,4.2-3.3,8.1c0,2.8,1,5.1,3,6.9
		c2,1.8,4.7,2.7,8,2.7c4.6,0,8.3-1.6,11.3-4.8s4.5-7.3,4.5-12.2V98.1z"/>
	<path class="st0" d="M387.3,118.9h-0.2v34.8h-9.2v-84h9.2v10.1h0.2c4.5-7.6,11.2-11.5,19.9-11.5c7.4,0,13.2,2.6,17.4,7.7
		c4.2,5.1,6.2,12,6.2,20.7c0,9.6-2.3,17.3-7,23.1c-4.7,5.8-11.1,8.7-19.2,8.7C397.1,128.6,391.4,125.4,387.3,118.9z M387.1,95.7v8
		c0,4.8,1.5,8.8,4.6,12.1s7,5,11.8,5c5.6,0,10-2.1,13.1-6.4c3.2-4.3,4.7-10.2,4.7-17.8c0-6.4-1.5-11.4-4.4-15.1c-3-3.6-7-5.4-12-5.4
		c-5.4,0-9.7,1.9-12.9,5.6C388.7,85.4,387.1,90.1,387.1,95.7z"/>
</g>
</svg>
